<svg width="840" height="560" viewBox="0 0 840 560" fill="none" xmlns="http://www.w3.org/2000/svg">
  <rect width="840" height="560" rx="28" fill="#060B17"/>
  <ellipse cx="420" cy="430" rx="300" ry="130" fill="#081329"/>
  <rect x="540" y="70" width="210" height="86" rx="24" fill="#0D1B34"/>
  <text x="585" y="126" fill="#F3F8FF" font-family="Arial, sans-serif" font-size="54" font-weight="700">AIR</text>
  <circle cx="248" cy="194" r="16" fill="#2CC7E8"/>
  <circle cx="294" cy="194" r="16" fill="#9DEAFB"/>
  <circle cx="340" cy="194" r="16" fill="#D9F7FF"/>
  <rect x="215" y="158" width="160" height="74" rx="34" fill="#32BEDA"/>
  <rect x="274" y="228" width="28" height="22" fill="#32BEDA"/>
  <rect x="295" y="286" width="250" height="122" rx="14" fill="#233C66"/>
  <rect x="316" y="307" width="210" height="80" rx="9" fill="#7BA4CC"/>
  <rect x="338" y="330" width="120" height="9" rx="4" fill="#D4E4F9"/>
  <rect x="338" y="349" width="92" height="9" rx="4" fill="#D4E4F9"/>
  <path d="M390 130L404 84H437L451 130" stroke="#FFB253" stroke-width="14" stroke-linecap="round"/>
  <path d="M370 160L336 144" stroke="#FFB253" stroke-width="14" stroke-linecap="round"/>
  <path d="M468 160L502 144" stroke="#FFB253" stroke-width="14" stroke-linecap="round"/>
  <path d="M424 64V28" stroke="#FFB253" stroke-width="14" stroke-linecap="round"/>
  <circle cx="220" cy="355" r="90" fill="#10274A"/>
  <circle cx="606" cy="350" r="92" fill="#1A3359"/>
</svg>
