<svg width="146" height="48" viewBox="0 0 146 48" fill="none" xmlns="http://www.w3.org/2000/svg">
  <rect x="1" y="1" width="144" height="46" rx="12" fill="#0D1B34" stroke="#23395E"/>
  <path d="M21 36V14H29.5C33.8 14 36 16.3 36 20.1C36 22.6 35 24.2 33.2 25.2C35.6 26.2 37 28.1 37 31.1C37 34.7 34.6 36 30.4 36H21ZM26 23.1H29.1C30.7 23.1 31.5 22.2 31.5 20.7C31.5 19.2 30.7 18.3 29.1 18.3H26V23.1ZM26 31.7H29.8C31.5 31.7 32.4 30.8 32.4 29.1C32.4 27.4 31.5 26.5 29.8 26.5H26V31.7Z" fill="#F4F8FF"/>
  <path d="M43 36V14H48V36H43Z" fill="#F4F8FF"/>
  <path d="M53 36V32H57V36H53Z" fill="#F4F8FF"/>
  <path d="M64 30.5C64 28.1 65.8 26.3 68.2 26.3C69.2 26.3 70.1 26.6 70.9 27.1L79.8 20.1C79.3 19.3 79 18.4 79 17.4C79 15 80.8 13.2 83.2 13.2C85.6 13.2 87.4 15 87.4 17.4C87.4 19.8 85.6 21.6 83.2 21.6C82.2 21.6 81.3 21.3 80.6 20.8L71.6 27.8C72.1 28.6 72.4 29.5 72.4 30.5C72.4 32.9 70.6 34.7 68.2 34.7C65.8 34.7 64 32.9 64 30.5Z" fill="#F4F8FF"/>
  <path d="M95 36V14H103.8C108.5 14 111 16.7 111 20.9C111 24 109.6 26.1 107 27.1L112 36H106.2L101.9 28.1H100V36H95ZM100 23.9H103.3C105.1 23.9 106.1 22.9 106.1 21.1C106.1 19.3 105.1 18.3 103.3 18.3H100V23.9Z" fill="#F4F8FF"/>
</svg>
